<svg width="82" height="53" viewBox="0 0 82 53" fill="none" xmlns="http://www.w3.org/2000/svg">
<rect x="1.12695" y="0.5" width="80" height="51.89" rx="25.945" stroke="white"/>
<path d="M48.1665 27.2689C48.1392 23.9861 50.8355 22.3859 50.961 22.3144C49.4328 20.0709 47.064 19.763 46.2289 19.741C44.2367 19.532 42.31 20.9398 41.2948 20.9398C40.2632 20.9398 38.7021 19.763 37.0156 19.796C34.8487 19.829 32.8238 21.0937 31.7158 23.0513C29.4234 27.049 31.1318 32.9217 33.3314 36.155C34.4284 37.7387 35.7111 39.5038 37.3922 39.4433C39.0351 39.3773 39.6519 38.3875 41.6332 38.3875C43.5981 38.3875 44.1766 39.4433 45.8905 39.4048C47.6534 39.3773 48.7669 37.8156 49.8257 36.221C51.0975 34.4064 51.6051 32.6193 51.627 32.5313C51.5833 32.5038 48.1993 31.2006 48.1665 27.2689ZM44.9299 17.6129C45.814 16.4967 46.4199 14.9845 46.2507 13.4448C44.9735 13.4998 43.3688 14.3356 42.4518 15.4244C41.6386 16.3867 40.9072 17.9593 41.0983 19.4385C42.5283 19.543 44.0074 18.7072 44.9299 17.6129Z" fill="white"/>
</svg>
