<svg width="122" height="28" viewBox="0 0 122 28" fill="none" xmlns="http://www.w3.org/2000/svg">
<path d="M121.999 24.9068C121.999 26.339 120.746 27.4999 119.2 27.4999C117.654 27.4999 116.4 26.339 116.4 24.9068C116.4 23.4747 117.654 22.3137 119.2 22.3137C120.746 22.3137 121.999 23.4747 121.999 24.9068Z" fill="white"/>
<path d="M33.1809 26.1499C33.0567 26.4129 32.8859 26.6472 32.6663 26.8506C32.4444 27.0561 32.1893 27.2143 31.8987 27.3273C31.6081 27.4424 31.2998 27.4978 30.9759 27.4978C30.6387 27.4978 30.326 27.4424 30.0331 27.3273C29.7425 27.2143 29.4874 27.0561 29.2656 26.8506C29.046 26.6472 28.8707 26.4129 28.7421 26.1499C28.6134 25.8848 28.5469 25.5972 28.5469 25.2869V12.7467C28.5469 12.4467 28.6134 12.1611 28.7421 11.8919C28.8707 11.6227 29.046 11.3844 29.2656 11.1809C29.4874 10.9775 29.7492 10.8193 30.0531 10.7042C30.357 10.5912 30.6787 10.5337 31.0158 10.5337C31.5061 10.5337 31.9475 10.659 32.3357 10.9118C32.7239 11.1624 33.0079 11.4871 33.1898 11.8837C33.9152 11.4624 34.696 11.1398 35.5301 10.9118C36.3664 10.6837 37.236 10.5625 38.1433 10.5522H38.2786C39.0683 10.5522 39.6828 10.7577 40.1242 11.1727C40.5634 11.5857 40.7853 12.1159 40.7853 12.7652C40.7853 13.0878 40.7187 13.3857 40.59 13.6549C40.4614 13.9241 40.2817 14.1583 40.0554 14.3556C39.8292 14.5549 39.563 14.7069 39.2591 14.8158C38.9552 14.9227 38.6268 14.9781 38.2786 14.9781H38.181C37.5221 14.9905 36.8988 15.1179 36.3176 15.3644C35.7342 15.611 35.2218 15.9398 34.7825 16.3528C34.3411 16.7678 33.9972 17.2507 33.7444 17.8014C33.4915 18.3541 33.365 18.9418 33.365 19.5644V25.2869C33.365 25.5972 33.3029 25.8848 33.1809 26.1499Z" fill="white"/>
<path d="M45.355 18.9439C45.355 19.509 45.4726 20.0411 45.7055 20.5405C45.9384 21.0398 46.2578 21.4754 46.6594 21.8473C47.0631 22.2192 47.5334 22.511 48.0702 22.7226C48.6092 22.9322 49.1838 23.037 49.7938 23.037C50.4172 23.037 50.9984 22.9322 51.5352 22.7226C52.0742 22.511 52.5423 22.2192 52.9372 21.8473C53.3342 21.4754 53.647 21.0398 53.8822 20.5405C54.1151 20.0411 54.2326 19.509 54.2326 18.9439C54.2326 18.3665 54.1151 17.8323 53.8822 17.3391C53.647 16.846 53.3342 16.4145 52.9372 16.0426C52.5423 15.6686 52.0742 15.3768 51.5352 15.1672C50.9984 14.9577 50.4172 14.8508 49.7938 14.8508C49.1838 14.8508 48.6092 14.9577 48.0702 15.1672C47.5334 15.3768 47.0631 15.6686 46.6594 16.0426C46.2578 16.4145 45.9384 16.846 45.7055 17.3391C45.4726 17.8323 45.355 18.3665 45.355 18.9439ZM40.5391 18.9357C40.5391 17.748 40.7853 16.6364 41.2755 15.5987C41.768 14.5611 42.4357 13.6529 43.2764 12.8721C44.1194 12.0933 45.0999 11.4789 46.2201 11.0289C47.3404 10.579 48.5338 10.355 49.8027 10.355C51.0605 10.355 52.245 10.5748 53.3586 11.0187C54.4722 11.4625 55.4461 12.0666 56.2801 12.8269C57.1164 13.5892 57.7797 14.4851 58.2722 15.5166C58.7624 16.548 59.022 17.6453 59.0486 18.8103V25.0157C59.0486 25.3281 58.9842 25.626 58.8534 25.9075C58.7247 26.189 58.5495 26.4315 58.3298 26.6349C58.1102 26.8383 57.8507 27.0006 57.5534 27.1219C57.2562 27.241 56.9323 27.3006 56.5818 27.3006C56.0894 27.3006 55.6612 27.1897 55.2996 26.9678C54.9381 26.7458 54.6652 26.4561 54.4855 26.0965C53.7845 26.528 53.0436 26.8691 52.2606 27.1219C51.4775 27.3725 50.659 27.4979 49.8027 27.4979C48.5338 27.4979 47.3404 27.2739 46.2201 26.8239C45.0999 26.3739 44.1194 25.7637 43.2764 24.989C42.4357 24.2164 41.768 23.3082 41.2755 22.2644C40.7853 21.2206 40.5391 20.111 40.5391 18.9357Z" fill="white"/>
<path d="M63.2109 10.4968C63.7544 10.4968 64.2291 10.6489 64.6395 10.9468C65.0454 11.2468 65.3205 11.6249 65.4647 12.0811C66.1124 11.5879 66.8001 11.2057 67.5255 10.9283C68.2509 10.653 69.0051 10.5153 69.7815 10.5153C70.9239 10.5153 71.9665 10.7311 72.9138 11.1626C73.861 11.5941 74.6751 12.1858 75.3561 12.9358C76.0371 13.6858 76.5651 14.5673 76.9422 15.5803C77.3171 16.5933 77.5123 17.6762 77.5256 18.8268V25.322C77.5256 25.6343 77.4613 25.9219 77.3304 26.185C77.1995 26.45 77.0287 26.6781 76.8135 26.8692C76.5984 27.0623 76.341 27.2144 76.0438 27.3274C75.7443 27.4425 75.4315 27.498 75.1077 27.498C74.7816 27.498 74.4732 27.4425 74.1804 27.3274C73.8876 27.2144 73.6347 27.0623 73.4195 26.8692C73.2066 26.6781 73.0335 26.45 72.9027 26.185C72.774 25.9219 72.7097 25.6343 72.7097 25.322V18.8453C72.6941 18.2926 72.6076 17.781 72.4457 17.3063C72.2838 16.8337 72.0553 16.4228 71.758 16.0755C71.4585 15.7262 71.097 15.4509 70.6688 15.2474C70.2429 15.044 69.7615 14.9413 69.2314 14.9413C68.7012 14.9413 68.2154 15.0317 67.7739 15.2105C67.3347 15.3913 66.9532 15.644 66.6293 15.9666C66.3054 16.2913 66.0481 16.6755 65.8618 17.1173C65.6732 17.5611 65.5734 18.0481 65.5601 18.5762V25.25C65.5601 25.5624 65.5002 25.85 65.376 26.113C65.254 26.3781 65.0809 26.6123 64.8613 26.8158C64.6417 27.0192 64.3866 27.1774 64.0938 27.2925C63.8032 27.4055 63.4948 27.463 63.171 27.463C62.8338 27.463 62.521 27.4055 62.2304 27.2925C61.9398 27.1774 61.6825 27.0192 61.4629 26.8158C61.2433 26.6123 61.068 26.3781 60.9371 26.113C60.8085 25.85 60.7441 25.5624 60.7441 25.25V12.7098C60.7441 12.4098 60.8085 12.1263 60.9371 11.855C61.068 11.5859 61.2433 11.3496 61.4629 11.1461C61.6825 10.9407 61.9442 10.7824 62.2504 10.6674C62.5543 10.5544 62.8737 10.4968 63.2109 10.4968Z" fill="white"/>
<path d="M83.995 20.5282C84.2279 21.0255 84.5451 21.4611 84.9466 21.8309C85.3482 22.2049 85.8162 22.4946 86.353 22.7042C86.8921 22.9158 87.4644 23.0186 88.0722 23.0186C88.6956 23.0186 89.2745 22.9158 89.8114 22.7042C90.3482 22.4946 90.8163 22.2049 91.2111 21.8309C91.606 21.4611 91.9188 21.0255 92.1517 20.5282C92.3846 20.0289 92.5022 19.4988 92.5022 18.9358V18.7734C92.4756 18.2228 92.3425 17.705 92.1029 17.2262C91.8633 16.7474 91.5461 16.3324 91.1512 15.9851C90.7564 15.6379 90.295 15.3605 89.7626 15.157C89.2324 14.9536 88.669 14.8509 88.0722 14.8509C87.4644 14.8509 86.8921 14.9557 86.353 15.1673C85.8162 15.3769 85.3482 15.6666 84.9466 16.0385C84.5451 16.4104 84.2279 16.8419 83.995 17.333C83.7621 17.8262 83.6445 18.3604 83.6445 18.9358C83.6445 19.4988 83.7621 20.0289 83.995 20.5282ZM97.3181 25.1062C97.3181 25.4185 97.256 25.7062 97.134 25.9692C97.012 26.2343 96.839 26.4644 96.6193 26.6637C96.3997 26.861 96.1424 27.0171 95.8518 27.1302C95.5612 27.2452 95.2462 27.3007 94.9113 27.3007C94.4565 27.3007 94.0528 27.2062 93.6956 27.013C93.3407 26.8219 93.059 26.5692 92.8505 26.2569C92.1517 26.6535 91.4019 26.9596 90.5989 27.1754C89.7958 27.3911 88.9529 27.498 88.0722 27.498C86.8034 27.498 85.6099 27.274 84.4897 26.824C83.3694 26.374 82.3889 25.7637 81.546 24.9891C80.7052 24.2144 80.0398 23.3062 79.5473 22.2624C79.0548 21.2207 78.8086 20.1111 78.8086 18.9358C78.8086 17.7481 79.0548 16.6365 79.5473 15.5988C80.0398 14.5612 80.7052 13.6509 81.546 12.8721C82.3889 12.0934 83.3694 11.479 84.4897 11.029C85.6099 10.579 86.8034 10.353 88.0722 10.353C88.8753 10.353 89.6494 10.4434 90.3948 10.6242C91.1379 10.803 91.8411 11.0619 92.5022 11.3968V6.46744C92.5022 6.15511 92.5643 5.86745 92.6863 5.60444C92.8083 5.33937 92.9813 5.10924 93.2009 4.91198C93.4206 4.71267 93.6779 4.55856 93.9685 4.44349C94.2591 4.33048 94.5741 4.27295 94.9113 4.27295C95.2462 4.27295 95.5612 4.33048 95.8518 4.44349C96.1424 4.55856 96.3997 4.71267 96.6193 4.91198C96.839 5.10924 97.012 5.33937 97.134 5.60444C97.256 5.86745 97.3181 6.15511 97.3181 6.46744" fill="white"/>
<path d="M112.094 17.2262C111.757 16.4351 111.209 15.7982 110.452 15.3194C109.694 14.8406 108.811 14.6002 107.802 14.6002C107.309 14.6002 106.843 14.666 106.402 14.7975C105.963 14.929 105.563 15.1119 105.208 15.3461C104.851 15.5803 104.538 15.8598 104.266 16.1824C103.995 16.5071 103.78 16.8543 103.624 17.2262H112.094ZM103.762 20.933C104.137 21.6275 104.676 22.1823 105.384 22.5953C106.089 23.0104 106.868 23.2179 107.724 23.2179C108.072 23.2179 108.374 23.1974 108.627 23.1542C108.88 23.1131 109.101 23.0576 109.297 22.9919C109.49 22.9261 109.665 22.846 109.82 22.7494C109.975 22.6549 110.124 22.5522 110.268 22.4433C110.694 22.1309 111.113 21.9522 111.519 21.9029C111.928 21.8556 112.314 21.8988 112.675 22.0303C112.921 22.1145 113.143 22.2398 113.336 22.4083C113.531 22.5768 113.698 22.7679 113.842 22.9837C113.984 23.1994 114.086 23.4337 114.153 23.6843C114.217 23.9371 114.23 24.1919 114.19 24.4487C114.153 24.7076 114.062 24.9624 113.92 25.2151C113.775 25.4658 113.562 25.6939 113.279 25.8973C113.019 26.1028 112.722 26.3001 112.385 26.4912C112.047 26.6843 111.657 26.8548 111.209 27.0048C110.763 27.1548 110.255 27.274 109.685 27.3644C109.115 27.4548 108.46 27.498 107.724 27.498C106.442 27.498 105.237 27.274 104.11 26.824C102.983 26.374 101.996 25.7638 101.149 24.9891C100.301 24.2145 99.6293 23.3104 99.1391 22.2727C98.6466 21.2351 98.4004 20.1234 98.4004 18.9358C98.4004 17.7481 98.6466 16.6324 99.1391 15.5886C99.6293 14.5447 100.301 13.6365 101.149 12.864C101.996 12.0893 102.983 11.479 104.11 11.029C105.237 10.5791 106.442 10.353 107.724 10.353C108.979 10.353 110.171 10.5729 111.298 11.0106C112.422 11.4482 113.407 12.0503 114.25 12.8187C115.091 13.5852 115.761 14.4831 116.26 15.5084C116.757 16.5338 117.021 17.6331 117.045 18.8104C117.045 19.4454 116.826 19.9591 116.386 20.3474C115.945 20.7378 115.375 20.933 114.676 20.933" fill="white"/>
<path d="M22.7443 19.4883H3.83101C1.71475 19.4883 0 17.9 0 15.9398V15.8494C0 13.8891 1.71475 12.3008 3.83101 12.3008H22.7443C24.8605 12.3008 26.5753 13.8891 26.5753 15.8494V15.9398C26.5753 17.9 24.8605 19.4883 22.7443 19.4883Z" fill="white"/>
<path d="M22.7443 27.498H3.83101C1.71475 27.498 0 25.9097 0 23.9494V23.8611C0 21.9008 1.71475 20.3125 3.83101 20.3125H22.7443C24.8605 20.3125 26.5753 21.9008 26.5753 23.8611V23.9494C26.5753 25.9097 24.8605 27.498 22.7443 27.498Z" fill="white"/>
<path d="M22.5011 7.32837L5.59321 14.9002C3.65663 15.7673 1.32742 15.0235 0.391293 13.2358C-0.54483 11.4502 0.26485 9.29889 2.20143 8.43178L19.1093 0.862023C21.0459 -0.00508749 23.3751 0.738737 24.3113 2.52433C25.2474 4.31197 24.4377 6.46126 22.5011 7.32837Z" fill="white"/>
</svg>
