<svg width="81" height="53" viewBox="0 0 81 53" fill="none" xmlns="http://www.w3.org/2000/svg">
<rect x="0.5" y="0.5" width="79.6264" height="51.89" rx="25.945" stroke="white"/>
<path d="M30.5244 37.6189C30.1748 37.4443 30 37.0079 30 36.5714C30 36.4841 30 36.3095 30 36.2222C30 29.7625 30 23.3027 30 16.9302C30 16.5811 30.0874 16.3192 30.1748 15.97C30.2622 15.7954 30.437 15.6209 30.6118 15.4463C34.3698 19.1999 38.0405 22.9535 41.7111 26.7072C37.9531 30.1989 34.2824 33.8653 30.5244 37.6189Z" fill="white"/>
<path d="M45.3809 22.866C44.3322 23.9136 43.196 24.9611 42.1473 26.0959C38.6514 22.5169 35.0681 18.9378 31.5723 15.3588C31.5723 15.3588 31.5723 15.2715 31.6597 15.2715C36.2043 17.803 40.7489 20.3345 45.3809 22.866Z" fill="white"/>
<path d="M31.5723 37.6188C35.0681 34.127 38.6514 30.6353 42.1473 27.1436C43.1086 28.1038 44.1574 29.064 45.2935 30.1115C40.7489 32.6431 36.2043 35.1746 31.6597 37.6188H31.5723Z" fill="white"/>
<path d="M45.907 29.7623C44.7708 28.7149 43.7221 27.6673 42.5859 26.6198C43.7221 25.485 44.8583 24.3502 45.9944 23.2153C46.344 23.3899 46.6936 23.5645 47.0431 23.8264C47.9171 24.3502 48.8785 24.7866 49.7525 25.3104C50.0147 25.3977 50.1894 25.5723 50.3642 25.8341C50.7138 26.2706 50.7138 26.7071 50.3642 27.1436C50.1894 27.3181 50.0147 27.4927 49.7525 27.58C48.5289 28.3657 47.218 29.064 45.907 29.7623Z" fill="white"/>
</svg>
